<?xml version="1.0" standalone="no"?>
<!DOCTYPE svg PUBLIC "-//W3C//DTD SVG 20010904//EN"
 "http://www.w3.org/TR/2001/REC-SVG-20010904/DTD/svg10.dtd">
<svg version="1.0" xmlns="http://www.w3.org/2000/svg"
 width="640.000000pt" height="640.000000pt" viewBox="0 0 640.000000 640.000000"
 preserveAspectRatio="xMidYMid meet">
<metadata>
Created by potrace 1.11, written by Peter Selinger 2001-2013
</metadata>
<g transform="translate(0.000000,640.000000) scale(0.100000,-0.100000)"
fill="#000000" stroke="none">
<path d="M3145 6080 c-3 -5 -2 -10 3 -10 4 0 30 -31 56 -69 55 -82 89 -115 56
-56 -32 57 -94 145 -102 145 -4 0 -10 -4 -13 -10z"/>
<path d="M3024 6055 c11 -8 25 -15 32 -15 16 0 108 -89 100 -97 -3 -4 -23 0
-45 7 -22 7 -53 10 -73 6 -18 -4 -45 -6 -60 -6 -36 0 -35 -6 2 -25 17 -9 30
-20 30 -26 0 -6 7 -17 15 -25 8 -9 15 -13 15 -9 0 3 9 1 19 -5 30 -16 33 4 6
30 -28 27 -34 56 -9 46 9 -3 34 -9 57 -12 33 -5 51 -15 84 -52 38 -42 43 -44
43 -24 0 30 -13 53 -66 123 -51 66 -80 87 -131 94 -36 5 -37 5 -19 -10z"/>
<path d="M3460 5999 c5 -17 9 -66 9 -108 0 -42 0 -97 0 -123 1 -25 -3 -49 -9
-53 -16 -10 -12 -21 10 -21 15 0 21 9 26 42 3 24 4 47 1 52 -3 4 1 21 9 37 13
26 13 30 -1 37 -10 6 -15 24 -15 57 0 51 -16 111 -30 111 -5 0 -5 -14 0 -31z"/>
<path d="M3392 5958 c1 -76 -10 -166 -23 -174 -5 -3 -9 -12 -9 -20 0 -14 -6
-25 -58 -101 -16 -24 -19 -33 -9 -33 32 0 98 105 117 186 15 69 19 154 7 182
-18 39 -27 24 -25 -40z"/>
<path d="M3520 5930 c0 -5 5 -10 11 -10 5 0 7 5 4 10 -3 6 -8 10 -11 10 -2 0
-4 -4 -4 -10z"/>
<path d="M2861 5899 c-39 -15 -11 -25 57 -21 53 3 61 6 51 18 -13 16 -72 18
-108 3z"/>
<path d="M3318 5848 c-6 -68 -3 -77 13 -61 18 18 22 80 6 103 -14 20 -15 17
-19 -42z"/>
<path d="M3535 5870 c-3 -6 1 -7 9 -4 18 7 21 14 7 14 -6 0 -13 -4 -16 -10z"/>
<path d="M2810 5849 c-11 -19 -10 -20 9 -9 12 6 21 15 21 20 0 18 -19 11 -30
-11z"/>
<path d="M3115 5850 c-4 -13 -18 -21 -43 -25 -20 -3 -62 -13 -92 -22 -30 -9
-73 -17 -95 -19 -22 -1 -45 -2 -51 -3 -5 -1 -19 -9 -30 -18 -10 -10 -36 -31
-57 -47 -21 -15 -36 -30 -34 -33 7 -6 78 40 96 61 30 36 27 2 -5 -60 -35 -68
-41 -97 -25 -136 5 -13 12 -30 15 -38 14 -36 44 -75 57 -76 8 0 9 1 3 3 -11 4
-23 34 -24 56 0 4 7 7 15 7 23 0 18 16 -11 35 -28 18 -28 32 -6 119 20 75 123
141 241 153 l54 6 -37 -54 c-38 -57 -49 -119 -21 -119 8 0 15 9 15 19 0 23 36
89 61 111 15 14 19 48 10 93 -3 15 -30 6 -36 -13z"/>
<path d="M2770 5809 c-54 -22 -140 -139 -102 -139 5 0 9 6 9 14 0 21 44 71 85
98 21 12 38 26 38 31 0 8 2 8 -30 -4z"/>
<path d="M3575 5800 c-8 -13 15 -13 35 0 12 8 11 10 -7 10 -12 0 -25 -4 -28
-10z"/>
<path d="M3653 5791 c3 -11 -71 -71 -88 -71 -6 0 -20 -9 -30 -20 -10 -11 -24
-20 -31 -20 -22 0 -27 -40 -9 -60 9 -10 14 -24 10 -29 -4 -7 4 -11 19 -11 25
0 66 -41 66 -65 0 -6 10 -17 23 -22 14 -7 28 -26 35 -51 10 -33 37 -61 47 -50
2 2 -2 26 -8 55 -9 45 -14 52 -36 55 -39 5 -41 43 -3 51 18 4 31 14 35 26 7
27 -6 26 -51 -4 -34 -23 -37 -24 -56 -7 -65 55 -71 87 -23 119 44 30 74 40
137 47 62 7 78 16 29 16 -38 0 -73 18 -51 27 17 7 15 23 -3 23 -8 0 -14 -4
-12 -9z"/>
<path d="M2612 5734 c-33 -39 -54 -92 -61 -154 l-6 -55 -35 3 -35 3 33 -20
c17 -12 35 -22 40 -23 4 -2 15 -19 24 -38 20 -40 62 -68 95 -62 19 3 21 6 11
28 -6 13 -15 24 -19 24 -4 0 -15 21 -24 48 -9 26 -21 55 -26 64 -19 36 -10
119 16 165 29 48 22 56 -13 17z m-12 -216 c0 -15 9 -43 20 -63 15 -27 16 -35
6 -35 -19 0 -48 65 -53 120 -4 42 -3 44 11 26 9 -11 16 -32 16 -48z"/>
<path d="M2910 5674 c-24 -55 -24 -61 -5 -98 8 -15 12 -32 9 -37 -3 -5 12 -11
34 -15 35 -5 39 -10 55 -54 9 -26 17 -50 17 -54 0 -19 -42 8 -93 59 -29 29
-29 29 -12 3 14 -23 15 -34 5 -82 -16 -79 -29 -89 -104 -81 -34 4 -65 11 -70
16 -6 5 -16 9 -24 9 -12 0 -12 -3 -2 -15 10 -13 9 -15 -8 -15 -32 0 -74 19
-67 30 3 5 0 10 -8 10 -8 0 -31 16 -51 35 -21 19 -48 38 -61 41 -13 3 -26 12
-29 20 -3 8 -14 14 -24 14 -11 0 -24 6 -30 13 -10 12 -12 18 -12 37 0 21 -26
9 -43 -19 -21 -36 -22 -90 -1 -119 10 -15 14 -32 10 -48 -5 -17 -3 -23 4 -19
25 16 99 15 115 -1 9 -9 19 -13 23 -9 10 10 -37 45 -62 45 -44 0 -67 12 -61
30 3 10 1 21 -5 25 -15 9 -13 75 3 75 6 0 27 -16 45 -36 33 -36 143 -104 168
-104 8 0 14 -4 14 -8 0 -5 18 -14 40 -21 77 -23 73 -66 -12 -122 -33 -22 -38
-29 -22 -29 23 0 91 42 111 69 7 9 13 26 13 39 0 23 10 27 65 23 18 -1 45 8
65 21 31 21 35 30 38 71 2 26 4 47 6 47 3 0 122 -44 147 -54 10 -4 20 -3 24 3
3 6 1 11 -4 11 -6 0 -11 6 -11 13 0 6 -13 18 -28 24 -29 13 -45 46 -58 116 -7
41 -19 48 -29 17 -8 -26 -17 -25 -43 3 -16 17 -20 32 -18 67 4 50 14 81 30 92
7 5 4 8 -6 8 -11 0 -25 -17 -38 -46z"/>
<path d="M3183 5650 c-27 -26 -40 -46 -36 -55 8 -22 24 -14 45 24 11 18 25 40
33 48 8 8 15 16 15 19 0 12 -19 0 -57 -36z"/>
<path d="M3705 5678 c-22 -6 -49 -17 -60 -25 -19 -14 -19 -15 8 -9 35 8 52 -1
36 -20 -20 -25 2 -15 38 16 18 17 43 30 53 30 11 0 20 5 20 10 0 12 -42 11
-95 -2z"/>
<path d="M2677 5625 c-3 -11 -5 -55 -3 -98 2 -69 5 -81 29 -104 35 -36 43 -24
18 27 -16 33 -18 46 -9 66 8 17 8 30 0 47 -6 12 -15 36 -20 52 -8 26 -10 27
-15 10z"/>
<path d="M3230 5590 c0 -5 5 -10 10 -10 6 0 10 5 10 10 0 6 -4 10 -10 10 -5 0
-10 -4 -10 -10z"/>
<path d="M3735 5559 c-31 -47 -29 -95 6 -130 19 -19 59 -26 59 -10 0 5 3 17 7
26 5 14 2 16 -14 11 -33 -11 -48 17 -36 67 6 23 14 50 18 60 14 33 -12 17 -40
-24z"/>
<path d="M3275 5502 c1 -79 3 -86 29 -108 15 -13 35 -24 44 -24 10 0 27 -7 40
-15 12 -9 27 -15 34 -14 7 1 38 1 70 0 l56 -1 7 -40 c8 -47 24 -61 110 -91
l63 -22 -1 -71 c0 -39 3 -79 8 -89 6 -16 4 -18 -16 -15 -20 2 -24 9 -25 39 -1
19 -6 43 -11 53 -8 14 -12 7 -21 -40 -14 -70 -15 -110 -2 -133 20 -38 51 -175
45 -202 -5 -23 -11 -27 -33 -25 -277 34 -402 29 -476 -21 -34 -23 -50 -27 -95
-24 -32 2 -74 13 -105 29 -45 23 -69 27 -196 34 -195 11 -284 3 -317 -28 -14
-13 -29 -24 -33 -24 -20 0 -15 16 16 57 19 24 34 50 34 56 0 6 13 25 29 42 15
16 36 51 46 77 20 53 12 90 -31 154 -18 26 -22 40 -15 47 6 6 11 19 11 29 0
10 5 18 10 18 6 0 10 7 10 15 0 18 -21 20 -39 3 -10 -11 -19 -5 -47 30 -20 23
-42 42 -49 42 -7 0 -29 18 -48 39 -19 22 -38 37 -41 33 -14 -14 -4 -71 17 -95
25 -30 47 -35 47 -12 0 20 20 19 50 -4 24 -19 24 -20 5 -41 -14 -15 -27 -20
-46 -16 -25 5 -26 4 -37 -83 -16 -118 -15 -247 3 -355 13 -82 13 -91 -2 -108
-10 -11 -12 -18 -5 -18 7 0 12 -7 12 -15 0 -17 -23 -20 -50 -5 -30 16 -47 -11
-54 -89 -12 -119 4 -168 82 -254 37 -40 56 -53 82 -55 19 -2 37 -5 39 -7 2 -2
4 -28 5 -57 1 -29 7 -61 12 -72 7 -12 8 -32 2 -60 -15 -68 -15 -90 3 -94 12
-2 15 3 12 21 -3 16 1 26 12 31 12 4 16 2 12 -8 -3 -8 1 -20 9 -26 8 -7 14
-28 14 -46 0 -19 5 -34 10 -34 6 0 10 -7 10 -17 0 -9 11 -35 24 -57 13 -23 29
-67 35 -98 7 -31 18 -62 26 -68 8 -6 14 -28 14 -48 0 -20 4 -59 9 -85 10 -51
7 -82 -12 -107 -7 -8 -18 -27 -26 -42 -7 -16 -19 -28 -25 -28 -7 0 -17 -12
-24 -27 -25 -54 -83 -132 -103 -139 -12 -3 -43 -27 -69 -52 -43 -41 -102 -71
-138 -72 -8 0 -22 -6 -30 -13 -20 -17 -110 -52 -171 -67 -54 -13 -91 -30 -85
-40 6 -10 -43 -55 -51 -47 -4 4 -1 13 6 22 7 8 9 15 4 15 -10 0 -131 -126
-152 -159 -9 -13 -15 -38 -14 -57 2 -18 -7 -50 -18 -71 -11 -21 -20 -50 -20
-64 0 -14 -14 -59 -30 -99 -19 -46 -26 -76 -20 -80 10 -6 -1 -164 -21 -284 -5
-34 -16 -131 -23 -216 -10 -111 -21 -176 -39 -230 -14 -41 -30 -117 -37 -169
-6 -51 -15 -102 -21 -113 -6 -11 -7 -32 -4 -48 8 -35 66 -67 153 -84 55 -11
57 -12 60 -46 1 -19 11 -73 21 -120 11 -47 25 -119 31 -160 7 -41 20 -100 30
-130 10 -30 32 -101 49 -157 36 -123 57 -167 76 -159 15 5 39 -13 55 -44 7
-12 27 -21 58 -26 26 -4 56 -13 67 -20 11 -8 27 -14 36 -14 11 0 19 -10 23
-28 48 -260 49 -262 76 -262 l26 0 -7 63 c-10 85 -37 197 -50 214 -8 9 -7 14
5 19 21 8 68 -4 61 -15 -6 -11 26 -18 120 -26 99 -8 523 11 630 29 77 13 131
18 320 30 17 1 37 5 45 9 26 11 120 17 120 8 0 -5 -6 -12 -12 -14 -13 -4 -3
-3 107 13 52 8 197 57 229 78 21 13 80 31 87 26 12 -7 105 42 112 58 2 7 35
30 73 51 70 39 144 117 144 152 0 9 13 24 30 33 16 9 30 23 30 30 0 10 18 18
21 10 0 -2 2 -82 5 -178 2 -96 6 -188 9 -204 6 -33 -5 -189 -13 -182 -2 3 -8
40 -12 83 -7 70 -8 66 -4 -37 1 -63 3 -145 3 -182 1 -65 2 -68 26 -68 41 0 47
50 41 324 -4 132 -8 264 -11 291 -2 28 -5 101 -5 162 -1 102 1 116 20 140 26
34 70 51 131 52 48 1 98 20 120 47 7 9 34 26 60 39 72 37 89 65 85 138 -4 68
-19 87 -71 87 -30 0 -118 -55 -148 -93 -20 -24 -61 -47 -84 -47 -22 0 -23 3
-23 93 0 50 -7 119 -15 152 -20 82 -45 206 -45 227 0 9 9 20 21 23 19 6 19 8
3 19 -16 12 -16 13 2 20 34 14 218 61 353 91 69 16 234 86 274 116 22 18 30
163 11 229 -7 25 -15 64 -19 88 -5 33 -10 40 -19 33 -18 -15 -26 -3 -26 37 0
19 -10 63 -22 99 -19 54 -20 66 -8 73 12 7 11 12 -7 28 -12 10 -28 37 -36 59
-8 22 -44 87 -81 144 -143 221 -176 275 -195 312 -18 37 -105 121 -188 183
-21 16 -40 32 -43 35 -3 4 -16 9 -30 13 -14 4 -38 13 -55 21 -46 20 -194 55
-237 55 -29 0 -119 43 -115 55 10 29 -173 89 -197 64 -8 -7 -6 -14 7 -23 19
-15 22 -26 6 -26 -6 0 -21 12 -33 28 -14 16 -44 33 -72 41 -59 17 -83 36 -77
61 3 12 -3 22 -17 30 -21 11 -22 10 -17 -12 6 -22 4 -24 -23 -20 -25 3 -32 11
-39 41 -15 56 -6 135 19 176 13 22 22 52 22 80 1 33 6 46 19 50 27 9 42 59 36
116 -6 44 -5 48 9 34 9 -8 22 -15 30 -15 12 0 14 9 8 46 -6 41 -4 46 16 51 17
5 21 11 17 31 -4 23 42 120 79 162 21 24 64 154 64 192 0 48 -33 88 -71 88
-16 0 -29 4 -29 10 0 5 -16 26 -36 46 -27 27 -31 35 -16 30 19 -6 20 -2 27
101 14 199 12 417 -5 447 -13 25 -13 29 3 37 9 6 17 18 17 28 0 9 14 38 30 64
47 74 61 114 54 157 -12 76 -44 46 -44 -42 0 -31 -35 -108 -49 -108 -5 0 -16
-3 -24 -6 -8 -3 -22 2 -31 12 -25 25 -31 10 -8 -23 14 -20 19 -38 15 -60 -6
-35 -17 -43 -27 -18 -3 8 -26 20 -51 26 -52 13 -57 19 -65 74 -4 34 -10 42
-41 57 -48 22 -80 63 -79 102 1 17 -2 44 -6 59 -5 21 -2 31 12 42 18 14 18 14
-3 15 -13 0 -32 -9 -44 -21 -16 -16 -29 -20 -51 -15 -18 3 -27 2 -23 -4 3 -6
12 -10 20 -10 12 0 35 -55 35 -83 0 -13 53 -67 66 -67 6 0 14 -7 18 -15 8 -23
-77 -20 -104 3 -11 9 -26 17 -33 17 -7 0 -24 25 -39 55 -30 60 -29 95 4 103
27 7 15 24 -20 29 l-28 4 1 -84z m180 -28 c3 -20 5 -38 3 -39 -9 -9 -26 13
-33 43 -5 25 -3 32 8 32 9 0 17 -14 22 -36z m-973 -386 c5 -13 -42 -58 -60
-58 -17 0 0 48 21 58 29 14 35 14 39 0z m-32 -82 c0 -3 -4 -8 -10 -11 -5 -3
-10 -1 -10 4 0 6 5 11 10 11 6 0 10 -2 10 -4z m89 -48 c1 -51 -16 -98 -35 -98
-8 0 -14 -4 -14 -10 0 -5 -11 -26 -25 -46 -14 -21 -28 -55 -31 -76 -5 -31 -9
-36 -20 -27 -17 14 -19 39 -3 39 5 0 8 4 5 9 -13 21 9 74 51 117 26 29 42 53
38 62 -3 8 -1 20 5 27 8 9 6 14 -5 19 -20 7 -10 26 14 26 15 0 19 -8 20 -42z
m1191 23 c13 -25 -2 -36 -30 -21 -21 11 -25 22 -13 33 12 13 32 7 43 -12z
m-1270 -26 c-7 -8 -19 -15 -26 -15 -8 0 -11 6 -8 15 4 8 15 15 26 15 17 0 18
-3 8 -15z m-5 -55 c-3 -5 -11 -10 -16 -10 -6 0 -7 5 -4 10 3 6 11 10 16 10 6
0 7 -4 4 -10z m1283 -28 c2 -18 -1 -32 -6 -32 -12 0 -22 24 -22 52 0 32 25 15
28 -20z m-1019 -184 c-28 -6 -61 -23 -85 -43 -39 -34 -39 -34 -43 -120 -4
-115 3 -145 47 -192 33 -36 45 -42 111 -54 64 -11 71 -14 46 -20 -42 -12 -122
-3 -151 16 -29 19 -54 71 -62 130 -2 22 -9 46 -15 53 -6 7 -7 43 -3 91 7 76 6
78 -18 95 -57 37 -18 55 119 54 90 0 95 -1 54 -10z m280 -29 c72 -41 131 -39
221 9 l65 34 180 -6 c155 -5 182 -8 193 -23 19 -27 11 -56 -18 -63 -16 -4 -25
-13 -26 -25 -3 -58 -5 -66 -14 -60 -5 3 -12 21 -16 40 -12 67 -79 98 -209 97
-94 0 -155 -19 -172 -53 -7 -13 -13 -57 -13 -98 0 -60 5 -82 26 -122 33 -59
72 -77 181 -81 89 -3 135 11 151 48 11 24 32 33 32 15 0 -6 -13 -30 -30 -54
-31 -47 -41 -51 -131 -62 -94 -11 -219 35 -219 80 0 8 -4 15 -9 15 -13 0 -33
54 -29 81 4 38 -11 102 -31 128 -15 19 -23 22 -50 16 -18 -4 -35 -14 -38 -23
-3 -10 -11 -23 -16 -30 -14 -17 -27 2 -27 40 0 37 -52 94 -98 109 -60 19 -64
32 -7 24 28 -3 74 -20 104 -36z m-571 9 c-6 -18 -28 -21 -28 -4 0 9 7 16 16
16 9 0 14 -5 12 -12z m1302 -13 c0 -8 -2 -15 -4 -15 -2 0 -6 7 -10 15 -3 8 -1
15 4 15 6 0 10 -7 10 -15z m-823 -15 c29 -13 44 -27 49 -44 3 -14 10 -26 15
-26 11 0 12 -220 1 -236 -18 -27 -96 -41 -180 -33 -144 15 -160 32 -161 176 0
98 12 143 48 170 27 20 178 16 228 -7z m-417 -10 c0 -12 -28 -25 -36 -17 -9 9
6 27 22 27 8 0 14 -5 14 -10z m985 -1 c70 -18 80 -36 78 -141 -2 -98 -14 -122
-74 -153 -38 -20 -162 -9 -195 17 -63 50 -94 182 -54 237 32 45 148 64 245 40z
m-945 -97 c0 -127 45 -239 115 -282 28 -17 50 -20 164 -20 94 0 142 4 168 15
46 20 53 19 53 -5 0 -15 7 -20 26 -20 20 0 25 4 20 17 -26 68 -30 165 -9 281
5 28 9 33 31 30 19 -2 25 -9 27 -33 6 -65 26 -231 31 -248 3 -9 10 -15 15 -11
6 3 8 12 5 20 -8 20 4 18 79 -17 63 -30 72 -31 154 -27 92 6 139 22 166 60 26
38 65 176 65 233 0 30 3 56 8 58 4 3 27 -7 51 -21 36 -21 41 -27 25 -32 -11
-4 -18 -17 -19 -31 0 -13 -4 -25 -9 -26 -15 -2 -25 -27 -17 -38 13 -16 -2
-185 -17 -194 -7 -4 -10 -15 -6 -24 3 -10 1 -17 -5 -17 -7 0 -7 -8 -1 -26 10
-26 10 -26 -29 -19 -34 6 -41 3 -51 -15 -15 -27 -3 -41 15 -17 12 16 14 16 29
2 22 -23 20 -45 -5 -45 -23 0 -21 -11 12 -89 21 -49 25 -95 7 -89 -6 2 -16 13
-22 23 -6 11 -27 42 -47 70 -19 27 -38 58 -42 68 -8 21 9 22 29 2 17 -17 34
-20 34 -6 0 11 -58 61 -70 61 -33 0 -52 -69 -29 -111 7 -15 6 -27 -4 -48 -13
-26 -12 -28 15 -44 21 -12 28 -24 28 -47 0 -16 -5 -30 -11 -30 -7 0 -8 -7 -4
-17 4 -10 8 -22 9 -28 1 -5 4 -14 7 -20 12 -20 19 -64 13 -79 -6 -15 -8 -15
-19 0 -7 10 -19 15 -29 11 -11 -4 -16 -1 -16 12 0 20 -58 106 -67 98 -2 -3 5
-19 17 -35 25 -34 38 -106 21 -125 -6 -8 -8 -17 -4 -20 12 -13 21 -7 27 18 8
32 26 33 26 1 0 -43 -12 -86 -24 -86 -23 0 -57 41 -51 61 4 11 2 19 -4 19 -7
0 -11 -29 -11 -75 0 -54 -4 -75 -13 -75 -16 0 -47 71 -48 113 l-1 32 -9 -30
c-5 -16 -7 -52 -3 -78 5 -43 4 -48 -12 -45 -13 2 -19 -3 -18 -14 1 -10 -2 -18
-7 -18 -12 0 -26 30 -34 73 -4 20 -11 37 -16 37 -8 0 -20 -53 -17 -80 4 -42
-3 -80 -15 -80 -7 0 -23 14 -36 31 -18 24 -22 41 -19 79 4 72 -13 65 -37 -15
-11 -38 -25 -69 -30 -67 -6 1 -10 41 -10 87 0 64 3 84 13 80 17 -7 38 -13 29
-7 -4 2 -14 17 -23 34 -11 22 -12 33 -4 43 8 10 8 15 -1 20 -14 10 -29 -13
-29 -45 1 -42 -7 -100 -14 -107 -3 -3 -6 -31 -6 -62 -1 -48 -2 -53 -13 -36 -6
11 -12 36 -12 55 0 24 -5 35 -15 35 -10 0 -17 -17 -23 -54 -13 -80 -29 -49
-25 48 2 51 -1 80 -7 78 -5 -2 -12 -16 -15 -32 -7 -42 -25 -41 -42 2 l-15 38
-8 -42 c-8 -48 -14 -52 -40 -23 -15 17 -17 31 -11 97 3 43 9 96 12 117 6 34 4
38 -10 33 -22 -9 -31 15 -16 43 14 27 7 36 -12 16 -8 -8 -20 -43 -27 -78 -14
-68 -41 -138 -54 -138 -13 0 -6 130 10 178 7 24 11 48 7 53 -3 6 -1 16 6 24 6
7 7 16 2 19 -13 8 -61 -130 -54 -156 1 -5 -3 -8 -8 -8 -13 0 -13 156 1 181 8
16 17 19 47 13 20 -3 41 -10 47 -15 5 -5 15 -9 22 -9 20 0 -28 47 -52 52 -17
3 -19 10 -17 41 5 49 -11 68 -49 60 -32 -6 -33 -3 -19 46 14 48 -1 71 -48 71
-50 0 -57 7 -71 65 -7 27 -17 55 -23 62 -5 7 -7 16 -4 21 3 5 -1 33 -10 61 -8
28 -14 57 -13 64 2 6 -2 29 -9 50 -13 45 -9 61 21 75 36 17 37 15 37 -56z
m-102 -4 c-2 -13 -11 -24 -20 -26 -21 -4 -24 18 -6 36 19 19 30 14 26 -10z
m-71 -29 c15 -17 37 -35 50 -40 17 -6 23 -16 23 -38 0 -16 3 -37 7 -46 5 -14
2 -16 -15 -10 -21 6 -20 4 7 -42 31 -52 49 -133 30 -133 -17 0 -105 67 -121
93 -14 20 -33 167 -22 167 3 0 16 -12 30 -27 13 -14 27 -24 30 -21 7 7 -36 78
-47 78 -5 0 -9 11 -9 25 0 32 6 32 37 -6z m1503 2 c5 -11 10 -30 10 -42 0 -21
-45 -132 -63 -157 -17 -21 -19 -5 -6 32 9 26 10 39 2 47 -8 8 -13 5 -18 -12
-3 -13 -10 -33 -15 -44 -5 -11 -14 -33 -20 -48 -15 -42 -33 -23 -26 27 4 24
25 68 52 108 25 37 43 72 39 78 -3 5 -3 15 0 20 10 16 34 11 45 -9z m-836 -16
c3 -8 1 -15 -4 -15 -6 0 -10 7 -10 15 0 8 2 15 4 15 2 0 6 -7 10 -15z m770 -8
c-5 -13 -44 -41 -44 -31 0 3 5 14 10 25 12 21 42 27 34 6z m-197 -44 c-3 -10
-5 -2 -5 17 0 19 2 27 5 18 2 -10 2 -26 0 -35z m-587 -117 c0 -2 -8 -10 -17
-17 -16 -13 -17 -12 -4 4 13 16 21 21 21 13z m-394 -178 c-3 -17 -8 -34 -11
-36 -8 -9 -35 20 -35 38 0 22 9 30 33 30 17 0 19 -5 13 -32z m1078 -49 c-3 -5
-10 -7 -15 -3 -5 3 -7 10 -3 15 3 5 10 7 15 3 5 -3 7 -10 3 -15z m-1064 -59
c6 0 10 5 10 10 0 6 11 10 25 10 22 0 24 -3 18 -32 -7 -38 -42 -90 -55 -82 -4
3 -8 21 -8 40 0 22 -4 33 -12 32 -9 -2 -14 11 -16 37 l-2 40 15 -27 c9 -16 20
-28 25 -28z m944 -104 c39 -73 32 -89 -14 -37 -37 40 -50 78 -33 95 9 9 17 -1
47 -58z m3 -139 c4 -25 2 -37 -6 -37 -13 0 -25 27 -36 80 l-7 35 21 -21 c12
-11 24 -37 28 -57z m-807 -146 c0 -11 -4 -23 -10 -26 -6 -4 -10 5 -10 19 0 14
5 26 10 26 6 0 10 -9 10 -19z m770 -114 c0 -26 24 -74 44 -88 13 -10 -2 -86
-23 -117 -10 -15 -33 -52 -50 -82 -51 -87 -119 -139 -308 -235 -195 -99 -307
-134 -448 -141 -110 -6 -150 12 -161 71 -7 39 10 115 30 128 8 5 7 10 -4 17
-13 9 -13 12 3 24 9 7 17 16 17 19 0 3 19 31 41 62 31 41 45 52 54 45 10 -8
14 -2 18 22 14 82 17 147 8 198 -10 60 -2 82 25 65 16 -10 31 -44 63 -146 19
-60 67 -154 89 -178 8 -8 24 -30 37 -50 30 -47 105 -125 112 -117 6 6 -6 23
-57 79 -13 15 -25 33 -26 40 0 7 -2 17 -2 24 -1 6 -11 15 -22 18 -11 3 -20 14
-20 23 0 9 -14 37 -30 61 -17 24 -30 50 -30 57 0 8 -9 28 -20 46 -11 18 -20
44 -20 58 0 25 0 25 25 -6 19 -24 36 -33 70 -38 34 -6 50 -14 65 -37 19 -26
27 -29 74 -29 36 0 58 5 66 15 9 11 22 14 46 9 29 -5 38 -2 62 24 15 16 37 31
47 33 11 2 27 19 35 37 12 26 20 31 37 27 14 -3 27 1 35 11 7 9 33 36 58 60
47 45 60 44 60 -9z m131 -171 c1 -39 1 -106 0 -149 0 -45 3 -76 9 -72 5 3 8
61 7 129 -1 68 1 122 5 120 15 -9 25 -73 26 -157 0 -48 4 -88 9 -90 12 -3 20
120 11 187 -5 33 -6 61 -4 64 3 2 14 1 25 -3 30 -9 71 -107 88 -209 22 -136
22 -136 39 -136 17 0 17 24 -2 170 -7 54 7 45 26 -15 18 -56 39 -95 51 -95 12
0 12 1 -22 153 -11 54 -18 101 -15 104 11 11 52 -57 92 -154 9 -24 21 -43 26
-43 12 0 10 54 -4 68 -9 9 -8 12 8 12 33 0 82 -95 83 -162 1 -27 5 -38 16 -38
28 0 25 77 -6 141 -14 31 -19 53 -13 59 10 10 65 -6 119 -34 17 -9 35 -16 42
-16 19 0 219 -96 273 -131 29 -19 54 -44 61 -63 7 -17 24 -42 37 -56 51 -54
133 -195 176 -304 19 -47 19 -44 0 -48 -11 -2 -1 -14 30 -35 26 -18 48 -33 51
-33 4 0 -1 30 -11 63 -6 20 -5 21 10 6 9 -8 18 -24 20 -35 2 -10 6 -26 8 -34
3 -15 -2 -17 -55 -19 -46 -2 -20 -21 28 -21 42 0 46 -2 60 -36 8 -20 15 -39
15 -43 0 -4 -47 -5 -105 -3 -114 5 -146 -1 -126 -21 8 -8 41 -11 99 -9 73 2
92 0 120 -17 17 -12 32 -28 32 -37 0 -16 -1 -16 -18 -1 -23 21 -33 22 -26 2 4
-10 0 -15 -14 -15 -39 0 -122 22 -136 36 -12 11 -15 11 -20 -1 -3 -8 -1 -15 4
-15 17 0 11 -20 -7 -26 -31 -10 -68 -28 -84 -41 -12 -10 -22 -9 -52 7 -26 14
-56 20 -102 20 -36 0 -65 3 -65 8 1 27 22 36 94 37 42 1 79 5 83 8 3 4 0 7 -8
7 -63 2 -130 8 -134 12 -9 9 24 75 40 82 9 3 38 6 63 6 39 1 44 3 28 11 -10 6
-35 9 -56 6 -51 -7 -63 4 -66 57 -3 49 -53 163 -84 191 -15 14 -17 27 -13 70
3 32 0 72 -8 99 -11 38 -19 48 -46 57 -39 13 -81 -6 -115 -51 -22 -30 -23 -30
-118 -30 l-97 0 -56 55 c-46 45 -62 55 -91 55 -71 0 -118 -70 -113 -170 2 -31
-2 -50 -14 -60 -42 -39 -61 -101 -68 -219 -5 -105 -8 -116 -26 -119 -38 -7
-40 -22 -3 -22 48 0 54 -13 25 -52 -14 -18 -49 -83 -78 -144 l-54 -111 -70
-23 c-38 -12 -85 -31 -103 -42 -18 -11 -54 -28 -81 -38 -85 -31 -207 -110
-273 -178 -35 -35 -72 -74 -84 -86 -28 -28 -100 -144 -109 -176 -4 -14 -12
-30 -17 -37 -9 -11 -15 -70 -22 -221 -4 -82 6 -101 76 -152 29 -21 45 -27 60
-21 33 12 33 53 1 92 -23 27 -28 44 -31 99 -4 66 10 116 28 105 5 -3 8 -22 6
-43 -4 -42 17 -137 36 -160 7 -8 27 -24 44 -36 17 -11 50 -34 72 -50 30 -21
48 -27 67 -22 29 7 35 46 9 67 -8 7 -22 26 -31 43 -9 17 -20 33 -24 36 -5 4
-12 22 -15 40 l-7 35 34 -31 c19 -18 50 -37 70 -44 l36 -13 -13 -51 c-8 -28
-14 -91 -14 -140 0 -105 23 -167 72 -192 16 -8 36 -30 43 -48 8 -18 21 -38 29
-46 40 -32 7 -37 -133 -19 -126 16 -125 16 -138 46 -21 46 -52 93 -62 93 -6 0
2 -22 17 -50 19 -36 24 -52 15 -61 -8 -8 -16 -8 -31 0 -11 6 -77 14 -147 17
-144 8 -139 5 -170 104 -9 30 -25 78 -35 105 -31 83 -81 300 -78 335 3 38 -3
80 -12 80 -25 0 0 -248 39 -384 11 -38 34 -98 51 -133 16 -36 30 -74 30 -85 0
-19 -4 -20 -57 -13 -65 8 -75 16 -116 92 -35 65 -18 69 26 7 45 -65 66 -88 73
-81 3 3 -2 15 -12 26 -17 18 -76 127 -103 191 -10 23 -11 23 -5 -8 5 -27 3
-32 -15 -32 -17 0 -18 -4 -12 -28 5 -15 18 -46 30 -69 36 -72 27 -87 -32 -56
-18 9 -45 19 -61 22 -25 6 -31 15 -57 90 -34 99 -56 270 -39 301 6 11 8 24 5
29 -11 19 -12 950 -1 954 8 3 7 12 -3 27 -7 13 -15 66 -18 122 -3 54 -10 98
-14 98 -8 0 -15 -91 -12 -170 1 -19 -3 -107 -9 -195 -6 -88 -9 -185 -8 -215 1
-30 2 -116 1 -190 -1 -74 -3 -205 -4 -290 l-2 -155 -80 -11 c-91 -13 -105 -10
-106 20 -1 18 -2 18 -12 -6 -10 -27 -14 -28 -80 -28 -69 0 -103 6 -203 37 -28
8 -59 13 -70 11 -12 -3 2 -10 38 -21 115 -35 63 -48 -57 -14 -82 23 -84 25
-68 130 22 158 22 158 81 101 73 -70 302 -164 399 -164 49 0 61 -10 31 -27
-21 -11 -18 -12 22 -6 25 3 54 9 65 14 17 6 16 8 -12 14 -18 4 -33 11 -33 16
0 5 -17 9 -37 9 -61 1 -152 24 -247 64 -92 38 -113 52 -178 112 -21 19 -38 30
-38 24 0 -6 -4 -9 -9 -5 -12 7 -3 71 15 107 7 14 20 75 29 135 8 59 20 133 25
164 6 30 10 86 10 125 1 79 9 151 39 316 17 93 28 129 56 175 19 32 33 65 30
74 -3 9 6 32 20 53 14 20 25 40 25 45 0 4 9 16 20 26 11 10 20 14 20 10 0 -5
12 3 28 18 16 15 49 31 78 38 29 7 66 24 84 40 18 16 35 29 39 29 3 0 5 -21 3
-48 -11 -176 -13 -282 -5 -282 20 0 31 43 32 120 0 72 4 87 26 116 14 18 25
39 25 46 0 24 47 115 63 121 16 6 27 -18 27 -60 0 -13 5 -23 10 -23 6 0 10 5
10 10 0 6 5 10 10 10 13 0 13 -116 -1 -141 -13 -26 -24 -213 -12 -206 11 7 26
75 48 217 19 122 53 269 68 288 16 20 25 -4 20 -52 -5 -39 -2 -45 32 -75 72
-63 113 -74 272 -75 110 0 146 3 160 14 23 19 95 53 158 75 28 9 91 36 140 60
74 34 106 57 171 121 168 166 191 201 192 289 0 81 1 83 17 61 10 -13 15 -45
16 -90z m-546 55 c3 -5 1 -12 -5 -16 -5 -3 -10 1 -10 9 0 18 6 21 15 7z m-51
-34 c15 -24 -3 -35 -20 -13 -8 11 -14 24 -14 29 0 13 22 3 34 -16z m156 8 c0
-8 -7 -15 -15 -15 -26 0 -18 20 13 29 1 1 2 -6 2 -14z m890 -115 c0 -5 -4 -10
-10 -10 -5 0 -10 5 -10 10 0 6 5 10 10 10 6 0 10 -4 10 -10z m260 -50 c0 -5
-4 -10 -9 -10 -6 0 -13 5 -16 10 -3 6 1 10 9 10 9 0 16 -4 16 -10z m60 -35 c0
-8 4 -15 9 -15 6 0 22 -11 37 -25 15 -14 22 -25 15 -25 -16 0 -91 39 -108 55
-13 14 -12 14 40 24 4 0 7 -6 7 -14z m-1860 -95 c0 -5 -4 -10 -10 -10 -5 0
-10 5 -10 10 0 6 5 10 10 10 6 0 10 -4 10 -10z m-20 -91 c0 -44 -3 -60 -12
-57 -12 4 -13 61 -2 101 10 32 14 18 14 -44z m-131 -63 c-7 -34 -17 -56 -26
-56 -18 0 -17 41 3 90 24 60 39 37 23 -34z m1519 -22 c12 -8 22 -21 22 -28 0
-8 8 -17 18 -21 14 -5 15 -7 2 -14 -8 -5 -39 -14 -67 -21 -29 -6 -53 -16 -53
-21 0 -5 -7 -9 -15 -9 -11 0 -15 12 -15 45 0 73 53 108 108 69z m458 -69 c1
-85 -2 -89 -44 -60 -20 14 -42 25 -48 25 -6 0 -17 7 -24 15 -26 31 35 87 90
82 24 -2 25 -6 26 -62z m-2164 20 c-2 -14 -8 -25 -13 -25 -10 0 -12 34 -2 43
13 14 20 6 15 -18z m695 -11 c-3 -3 -12 -4 -19 -1 -8 3 -5 6 6 6 11 1 17 -2
13 -5z m1306 -49 c12 -9 38 -20 57 -25 58 -16 134 -91 174 -173 19 -39 34 -81
31 -92 -2 -11 -4 -30 -4 -42 -1 -19 -7 -23 -30 -23 -31 0 -47 -13 -36 -30 3
-6 15 -6 30 0 15 6 27 6 30 0 7 -11 -14 -51 -33 -63 -9 -6 -10 -12 -3 -20 6
-9 1 -25 -17 -54 -23 -36 -39 -46 -111 -74 -69 -27 -98 -33 -155 -32 -107 1
-244 42 -305 91 l-24 20 41 7 c26 4 42 12 42 21 0 8 -1 14 -2 14 -2 0 -28 -7
-58 -15 -55 -15 -55 -15 -78 11 -13 14 -21 31 -19 38 2 6 25 16 51 23 27 7 51
14 54 18 14 13 -12 17 -60 7 -63 -12 -68 -8 -68 60 0 67 18 142 46 192 31 56
114 133 151 141 15 4 33 8 38 9 6 2 61 4 123 5 88 1 118 -2 135 -14z m-463
-515 c0 -6 -44 -30 -55 -30 -11 0 -4 25 12 42 12 14 19 15 30 7 7 -6 13 -15
13 -19z m45 -29 c14 -24 167 -80 285 -106 l55 -11 -78 -12 c-43 -7 -113 -12
-157 -12 -70 0 -81 2 -95 23 -14 20 -23 22 -90 19 -41 -1 -75 1 -75 4 0 3 7
22 17 41 12 27 21 33 36 29 12 -3 31 3 45 15 27 21 48 24 57 10z m1175 -21
c55 -39 84 -140 81 -277 -1 -44 -24 -43 -41 2 -27 69 -72 83 -49 16 13 -36 2
-55 -15 -28 -27 45 -36 50 -20 12 36 -89 36 -95 1 -110 -21 -9 -36 -10 -44 -4
-8 7 -13 4 -18 -10 -3 -12 -14 -25 -23 -30 -21 -10 -138 -31 -172 -30 -14 1
-44 -6 -67 -14 -23 -8 -54 -12 -67 -10 -18 4 -28 0 -32 -11 -3 -9 -13 -16 -21
-16 -26 0 -118 -33 -137 -49 -32 -28 -388 -18 -481 14 -22 8 -60 17 -85 20
-25 3 -56 12 -68 19 -18 9 -37 10 -70 4 -85 -17 -162 -43 -162 -55 0 -6 -25
-26 -55 -43 -30 -17 -54 -35 -52 -39 1 -5 -20 -30 -47 -55 -34 -32 -54 -45
-67 -41 -23 8 -73 -18 -93 -47 -23 -33 -20 -90 6 -124 30 -39 45 -51 96 -76
40 -19 61 -42 50 -53 -2 -2 -34 5 -71 17 -107 32 -157 96 -157 198 0 39 -3 50
-16 50 -9 0 -14 -6 -11 -12 2 -7 -4 -30 -14 -50 -37 -74 -21 -146 57 -247 19
-25 31 -48 26 -53 -9 -9 -55 8 -82 30 -86 71 -80 60 -86 157 -5 91 -21 165
-35 165 -12 0 -46 -52 -65 -98 -22 -57 -15 -114 25 -180 17 -29 31 -57 31 -62
0 -22 -35 -8 -71 29 l-39 39 4 73 c3 41 9 96 15 122 6 27 8 53 5 59 -4 6 -3 8
3 5 5 -3 15 16 22 44 12 48 32 77 124 183 59 68 209 173 347 243 47 24 76 43
65 43 -16 0 -15 3 10 18 36 22 78 34 69 20 -8 -12 86 1 103 14 17 14 44 2 37
-15 -7 -18 70 -141 101 -161 14 -9 43 -16 66 -16 33 0 47 6 65 27 34 40 47
102 32 158 -21 76 -5 87 142 98 128 10 350 45 381 61 34 17 39 13 29 -23 -9
-32 -3 -106 11 -142 17 -44 111 -72 159 -47 43 23 80 116 80 202 0 57 2 66 18
66 10 0 23 5 29 11 6 6 30 12 52 13 28 0 41 5 41 15 0 20 116 5 150 -19z
m-510 14 c0 -18 -24 -44 -41 -44 -19 0 -19 1 -2 25 16 22 43 34 43 19z m159
-21 c22 -14 23 -19 19 -103 -4 -94 -18 -126 -64 -157 -25 -16 -28 -16 -62 3
-30 15 -38 27 -45 62 -5 27 -4 60 3 90 6 26 14 61 17 77 3 17 12 35 20 42 18
14 79 6 112 -14z m-836 -101 c37 -33 73 -147 68 -217 -1 -16 -9 -40 -17 -53
-14 -21 -22 -24 -57 -19 -27 4 -48 14 -60 29 -10 13 -23 30 -30 38 -35 46 -57
101 -57 146 0 43 4 52 31 71 37 25 97 28 122 5z m-268 -122 c-3 -5 -10 -10
-16 -10 -5 0 -9 5 -9 10 0 6 7 10 16 10 8 0 12 -4 9 -10z m1500 -110 c-10 -16
-23 -12 -30 10 -10 31 5 45 22 21 8 -12 11 -26 8 -31z m-1320 -221 c22 -6 47
-17 55 -23 22 -19 167 -50 230 -49 30 0 131 5 225 12 158 11 170 11 182 -5 7
-10 13 -30 13 -45 0 -15 12 -81 26 -146 23 -104 25 -133 21 -243 -6 -142 -19
-186 -78 -265 -38 -50 -88 -82 -164 -106 -48 -14 -204 -87 -225 -104 -26 -21
-121 -48 -132 -37 -5 5 -8 27 -6 48 4 47 30 63 110 68 52 4 151 37 227 76 63
32 137 127 116 148 -4 4 -15 -4 -24 -18 -26 -40 -105 -110 -123 -110 -10 0
-18 -4 -18 -9 0 -16 -165 -70 -230 -75 -36 -3 -80 -8 -97 -12 -40 -8 -46 12
-8 26 26 10 75 42 109 73 11 9 25 17 32 17 6 0 17 6 23 14 7 8 39 22 72 32 80
24 91 38 48 61 -62 33 -89 67 -91 115 -3 101 17 132 123 183 66 33 83 37 128
33 28 -3 60 -13 70 -22 13 -12 21 -14 26 -6 17 27 -51 60 -127 60 -40 0 -139
-43 -193 -84 -54 -42 -69 -78 -61 -154 8 -80 15 -93 60 -117 l35 -19 -85 -43
c-47 -24 -87 -43 -90 -43 -2 0 -4 9 -4 20 0 47 -40 90 -67 71 -10 -7 -92 -141
-110 -181 -6 -14 -19 -47 -28 -73 l-17 -48 -130 3 -130 3 -34 60 c-18 33 -34
67 -34 75 0 8 14 21 31 29 17 7 58 36 91 64 34 27 86 64 118 81 74 40 97 60
148 124 41 52 51 87 36 126 -12 31 -141 10 -221 -36 -113 -64 -243 -167 -212
-168 14 0 83 48 99 68 21 28 218 119 265 123 35 4 40 1 43 -19 6 -42 -96 -154
-183 -200 -33 -18 -72 -42 -87 -55 -79 -66 -116 -87 -159 -87 -30 0 -31 -1
-16 -18 10 -10 17 -22 17 -25 0 -13 -40 -7 -42 6 0 6 -2 17 -2 22 -1 6 -8 25
-15 43 -10 24 -12 55 -7 115 4 45 8 98 9 117 l2 35 50 0 c58 0 77 9 68 33 -9
24 -44 62 -59 62 -6 0 -15 7 -18 15 -5 13 -1 25 21 64 1 2 13 -3 25 -11 33
-22 99 -31 131 -19 19 8 27 18 27 36 0 15 -6 25 -14 25 -22 0 -146 61 -146 72
0 15 33 68 42 68 4 0 8 -7 8 -15 0 -8 -5 -15 -11 -15 -22 0 -3 -34 23 -41 24
-6 26 -5 16 10 -8 13 -4 29 17 69 15 29 30 52 35 52 4 0 29 19 55 42 43 38 68
48 140 57 6 0 28 -4 50 -10z m-411 -232 c15 -24 -3 -35 -20 -13 -8 11 -14 24
-14 29 0 13 22 3 34 -16z m-14 -77 c-1 -19 -24 -50 -37 -50 -15 0 -43 46 -43
70 0 12 5 31 11 43 12 21 12 21 40 -13 16 -19 29 -41 29 -50z m130 20 c48 -25
51 -40 8 -40 -42 0 -82 20 -86 43 -5 23 29 22 78 -3z m1388 -190 c4 -67 -10
-94 -62 -121 -23 -11 -54 -29 -71 -39 -55 -35 -97 -50 -141 -50 -24 0 -44 3
-44 6 0 3 5 25 11 50 9 36 18 48 43 58 17 8 69 46 115 85 70 61 89 72 115 69
30 -3 31 -5 34 -58z m-2539 -62 c6 -29 15 -93 21 -142 5 -48 15 -95 22 -104 9
-10 9 -13 1 -9 -6 4 -15 2 -18 -3 -4 -6 -25 -10 -48 -8 -33 2 -42 -1 -45 -14
-3 -14 3 -18 26 -18 42 0 62 -9 62 -29 0 -10 7 -26 16 -37 15 -18 15 -17 10
15 -6 31 -4 33 17 28 31 -8 195 -64 237 -81 159 -64 342 -88 736 -93 l332 -5
39 25 c32 20 40 32 41 56 0 16 6 39 12 51 10 19 13 20 28 7 9 -8 29 -17 45
-21 29 -7 33 -17 17 -46 -7 -13 -7 -21 0 -25 5 -3 10 -15 10 -27 0 -19 5 -20
60 -16 49 3 84 17 196 72 74 38 150 72 167 77 18 4 42 11 55 14 35 11 27 -13
-18 -56 -35 -33 -80 -59 -165 -95 -16 -7 -13 -9 18 -12 l37 -3 -19 -25 c-48
-61 -184 -137 -286 -160 -65 -14 -99 -23 -185 -48 -102 -30 -379 -68 -294 -40
10 3 28 10 39 15 11 5 62 22 113 39 115 37 146 54 82 44 -25 -3 -63 -12 -85
-19 -72 -22 -412 -85 -462 -85 -18 0 -44 -5 -60 -11 -77 -29 -372 -67 -423
-54 -8 2 -71 9 -140 15 -332 29 -380 52 -372 172 1 19 -4 29 -18 33 -11 3 -20
15 -20 26 0 24 -16 25 -30 2 -10 -17 -10 -17 -20 -1 -6 10 -16 18 -23 18 -17
1 -40 36 -61 95 -11 28 -23 55 -27 61 -5 6 -11 58 -13 115 -4 95 -33 243 -58
292 -11 23 -5 25 137 32 66 3 147 12 180 19 33 8 74 14 92 15 30 1 32 -1 42
-51z m1581 -216 c-7 -58 -13 -68 -52 -88 -34 -18 -48 -11 -30 14 6 9 23 41 37
70 32 68 54 70 45 4z m-916 -198 c122 -6 135 -9 140 -27 5 -19 1 -19 -77 -13
-94 8 -206 24 -219 32 -14 9 -9 26 7 20 9 -3 76 -9 149 -12z m256 -44 c0 -5
-5 -10 -11 -10 -5 0 -7 5 -4 10 3 6 8 10 11 10 2 0 4 -4 4 -10z m-1120 -226
c0 -14 -6 -24 -14 -24 -20 0 -32 40 -15 51 19 11 29 2 29 -27z m1726 -59 c-11
-8 -29 -15 -40 -15 -21 1 -21 1 -2 15 11 8 29 15 40 15 21 -1 21 -1 2 -15z
m-469 -51 c-3 -3 -12 -4 -19 -1 -8 3 -5 6 6 6 11 1 17 -2 13 -5z m-112 -11
c-79 -6 -230 -24 -250 -30 -11 -3 -17 -2 -12 3 12 12 154 32 232 31 39 0 52
-2 30 -4z"/>
<path d="M2910 4516 c0 -2 7 -9 15 -16 12 -10 15 -10 15 4 0 9 -7 16 -15 16
-8 0 -15 -2 -15 -4z"/>
<path d="M2716 4482 c-10 -17 5 -42 35 -57 51 -27 159 -14 193 24 26 28 5 33
-43 9 -24 -12 -63 -22 -88 -22 -38 -1 -48 3 -68 28 -13 16 -25 24 -29 18z"/>
<path d="M2655 4400 c3 -5 11 -10 16 -10 6 0 7 5 4 10 -3 6 -11 10 -16 10 -6
0 -7 -4 -4 -10z"/>
<path d="M2866 4362 c-2 -4 2 -16 10 -27 8 -10 14 -14 14 -8 0 6 3 18 6 27 6
16 -20 24 -30 8z"/>
<path d="M3260 4485 c-44 -53 174 -95 226 -43 27 27 7 41 -26 16 -25 -18 -38
-20 -95 -15 -64 5 -106 24 -77 34 6 3 12 9 12 14 0 14 -26 10 -40 -6z"/>
<path d="M3230 4192 c0 -38 -9 -46 -32 -25 -11 9 -18 11 -18 5 0 -7 1 -13 2
-14 1 -2 -4 -13 -11 -25 -17 -32 -68 -31 -100 3 -16 17 -26 21 -31 14 -4 -7
-18 -10 -31 -8 -20 2 -23 8 -21 32 3 20 0 27 -10 24 -7 -3 -13 -19 -13 -39 0
-31 3 -34 37 -40 20 -3 48 -13 62 -22 29 -19 108 -13 127 9 6 8 18 14 25 14
22 0 43 42 37 73 -7 36 -23 35 -23 -1z"/>
<path d="M3040 4051 c-13 -25 -13 -54 -1 -46 9 5 31 -23 31 -39 0 -2 -25 -19
-55 -36 l-56 -32 58 -29 c47 -23 71 -28 130 -29 71 0 73 0 113 41 22 22 40 42
40 44 0 10 -85 34 -143 40 -42 4 -67 11 -66 18 1 7 1 29 0 50 -1 30 -5 37 -21
37 -10 0 -24 -9 -30 -19z m148 -153 c3 -31 0 -38 -15 -38 -25 0 -38 11 -40 35
-4 33 6 47 29 43 19 -2 24 -10 26 -40z m60 15 c2 -8 -5 -13 -17 -13 -12 0 -21
6 -21 16 0 18 31 15 38 -3z m-154 -9 c11 -28 6 -34 -25 -32 -34 3 -57 22 -39
33 6 4 17 4 25 1 8 -3 15 -1 15 4 0 16 17 11 24 -6z"/>
<path d="M3260 4041 c0 -24 -18 -28 -26 -6 -7 17 -24 20 -24 5 0 -21 43 -68
57 -63 8 3 12 12 9 19 -10 25 19 4 37 -28 30 -53 31 -23 0 33 -30 57 -53 74
-53 40z"/>
<path d="M3130 4038 c0 -7 11 -18 24 -24 23 -11 24 -10 14 12 -12 25 -38 33
-38 12z"/>
<path d="M3350 4037 c0 -17 57 -126 77 -146 32 -33 40 -20 13 24 -12 19 -32
54 -44 77 -18 35 -46 62 -46 45z"/>
<path d="M2980 3995 c0 -19 4 -35 9 -35 11 0 24 48 16 60 -13 21 -25 8 -25
-25z"/>
<path d="M2895 4003 c-4 -13 -11 -23 -15 -23 -4 0 -10 -17 -13 -37 -4 -21 -9
-53 -13 -70 -4 -21 -3 -33 4 -33 10 0 29 65 24 83 -1 4 5 21 14 38 8 17 13 38
11 47 -4 14 -6 13 -12 -5z"/>
<path d="M2930 3959 c-6 -22 -13 -46 -16 -54 -4 -9 0 -12 14 -9 15 5 19 15 21
55 1 27 -1 49 -3 49 -3 0 -10 -18 -16 -41z"/>
<path d="M3296 3850 c-9 -21 -31 -51 -49 -66 -30 -26 -34 -26 -117 -19 -92 7
-133 25 -169 73 -16 21 -20 23 -21 10 0 -31 65 -85 117 -98 158 -37 243 -2
268 109 9 44 -8 38 -29 -9z"/>
<path d="M3154 3705 c-4 -9 0 -24 10 -33 15 -15 16 -14 16 10 0 32 -17 46 -26
23z"/>
<path d="M3110 3662 c0 -5 9 -17 20 -27 22 -20 26 -14 10 16 -11 19 -30 26
-30 11z"/>
<path d="M3225 3640 c3 -5 11 -10 16 -10 6 0 7 5 4 10 -3 6 -11 10 -16 10 -6
0 -7 -4 -4 -10z"/>
<path d="M2350 4340 c0 -18 30 -70 40 -70 6 0 10 5 10 10 0 6 -4 10 -9 10 -5
0 -12 14 -16 30 -6 28 -25 43 -25 20z"/>
<path d="M3386 3259 c-3 -34 -6 -74 -5 -88 1 -39 29 66 29 112 0 60 -17 43
-24 -24z"/>
<path d="M3585 2941 c-6 -11 9 -23 19 -14 9 9 7 23 -3 23 -6 0 -12 -4 -16 -9z"/>
<path d="M3150 2794 c-36 -13 -75 -24 -88 -24 -12 0 -30 -4 -40 -10 -45 -26
-185 -62 -259 -67 -62 -4 -91 -2 -123 11 -54 21 -62 20 -22 -4 17 -11 32 -25
32 -31 0 -9 27 -10 98 -6 93 5 141 17 272 66 63 24 63 24 55 12 -3 -5 -56 -35
-119 -65 -106 -52 -146 -79 -134 -92 3 -2 25 6 49 20 54 31 181 93 273 135 45
21 78 30 95 27 29 -6 77 26 66 44 -10 17 -86 9 -155 -16z"/>
<path d="M2356 2780 c-3 -16 -9 -43 -12 -60 -3 -17 -1 -30 4 -30 11 0 19 29
21 83 2 45 -5 49 -13 7z"/>
<path d="M4630 2759 c0 -5 -6 -9 -14 -9 -19 0 -29 -17 -20 -31 4 -8 9 -7 15 2
5 8 25 12 56 10 52 -2 50 9 -4 27 -20 7 -33 7 -33 1z"/>
<path d="M3190 2737 c-19 -11 -59 -35 -87 -53 -29 -19 -55 -34 -58 -34 -4 1
-18 -13 -33 -30 -14 -16 -30 -30 -35 -30 -11 0 -116 -73 -117 -81 0 -4 7 -10
16 -13 16 -6 150 71 174 100 14 16 45 20 35 4 -8 -13 5 -13 25 0 13 8 12 10
-2 10 -29 0 -21 26 15 49 94 61 149 125 67 78z"/>
<path d="M3388 2679 c-164 -107 -289 -316 -348 -580 -12 -54 -8 -85 9 -74 5 2
12 24 16 47 12 69 14 75 30 120 9 24 21 57 26 75 5 18 16 45 24 60 8 15 15 32
15 36 0 10 70 116 118 179 20 26 63 68 97 93 65 47 115 95 99 95 -5 0 -44 -23
-86 -51z"/>
<path d="M4626 2701 c-4 -5 3 -12 14 -16 26 -8 26 -32 -1 -40 -15 -5 -19 -14
-17 -33 3 -24 6 -27 38 -24 56 6 72 21 22 22 -58 0 -52 24 7 28 36 3 41 6 30
18 -6 8 -16 14 -21 14 -6 0 -23 9 -38 20 -16 11 -31 16 -34 11z"/>
<path d="M3017 2524 c-16 -19 -25 -34 -20 -34 14 0 66 57 56 62 -4 3 -21 -10
-36 -28z"/>
<path d="M2356 2374 c-16 -48 -22 -103 -9 -90 4 4 14 31 24 60 21 69 8 96 -15
30z"/>
<path d="M2154 2250 c6 -142 29 -267 55 -293 16 -16 14 7 -5 89 -15 66 -18 94
-30 254 -3 41 -10 80 -16 85 -7 7 -9 -32 -4 -135z"/>
<path d="M3312 2314 c-57 -73 -146 -223 -138 -231 3 -4 7 -4 9 -2 17 21 97
141 97 144 0 2 14 25 31 50 34 51 35 84 1 39z"/>
<path d="M1977 2187 c-8 -51 49 -285 101 -415 36 -90 117 -195 160 -207 18 -5
22 -2 22 14 0 11 -9 25 -21 31 -23 13 -78 71 -79 83 0 5 -6 15 -14 22 -13 13
-23 43 -91 263 -14 46 -28 109 -31 140 -12 98 -36 135 -47 69z"/>
<path d="M2495 2189 c-12 -19 -28 -335 -20 -396 6 -46 9 -54 16 -36 4 12 8 53
7 90 -1 60 6 171 17 300 4 42 -7 64 -20 42z"/>
<path d="M1787 1814 c-14 -14 59 -127 104 -160 42 -31 154 -144 143 -144 -5 0
-24 9 -41 20 -43 26 -42 19 5 -25 40 -39 112 -81 112 -66 0 5 -5 13 -11 17 -8
4 -7 9 2 15 11 7 7 15 -16 35 -16 14 -54 48 -82 75 -29 27 -55 49 -57 49 -10
0 -106 105 -106 116 0 7 -7 14 -15 18 -11 4 -14 13 -9 31 4 18 2 25 -8 25 -8
0 -17 -3 -21 -6z"/>
<path d="M1940 1731 c0 -4 17 -15 37 -25 38 -18 38 -18 20 2 -19 20 -57 36
-57 23z"/>
<path d="M2030 1671 c5 -11 24 -28 40 -38 17 -9 30 -21 30 -25 0 -4 4 -8 8 -8
5 0 7 12 4 28 -3 19 -14 32 -38 45 -46 23 -57 22 -44 -2z"/>
<path d="M1920 1585 c7 -8 17 -15 22 -15 5 0 3 7 -6 15 -8 8 -18 15 -22 15 -3
0 -1 -7 6 -15z"/>
<path d="M2554 1058 c7 -39 35 -102 42 -95 3 2 0 16 -6 31 -5 15 -10 36 -10
47 0 11 -7 28 -17 37 -15 15 -16 14 -9 -20z"/>
<path d="M3901 2556 c-17 -20 -6 -36 25 -36 21 0 44 24 33 34 -15 14 -48 14
-58 2z"/>
<path d="M4302 2558 c-18 -18 -14 -35 10 -41 28 -8 59 9 52 28 -4 8 -10 15
-14 15 -5 0 -14 2 -22 5 -7 3 -19 0 -26 -7z"/>
<path d="M4136 2441 c-3 -5 4 -21 16 -36 24 -31 28 -76 8 -100 -17 -21 -73
-14 -101 11 -21 19 -33 15 -24 -8 13 -34 112 -51 157 -27 11 6 43 12 70 13 39
1 54 7 69 25 10 13 19 29 19 37 0 22 -24 16 -35 -8 -6 -13 -23 -27 -38 -32
-24 -9 -31 -6 -52 17 -26 27 -33 61 -15 72 6 3 10 15 10 26 0 16 -7 19 -39 19
-22 0 -42 -4 -45 -9z"/>
<path d="M4830 1839 c-14 -6 -47 -15 -74 -21 -34 -7 -45 -13 -35 -19 9 -4 39
0 73 12 33 10 65 19 72 19 7 0 16 5 19 10 8 13 -22 12 -55 -1z"/>
<path d="M3750 1760 c0 -5 14 -10 31 -10 17 0 28 4 24 10 -3 6 -17 10 -31 10
-13 0 -24 -4 -24 -10z"/>
<path d="M4393 1743 c9 -2 23 -2 30 0 6 3 -1 5 -18 5 -16 0 -22 -2 -12 -5z"/>
<path d="M4144 1728 c-10 -16 45 -18 131 -5 l90 14 -108 -1 c-60 -1 -111 -4
-113 -8z"/>
<path d="M4333 1683 c9 -2 23 -2 30 0 6 3 -1 5 -18 5 -16 0 -22 -2 -12 -5z"/>
<path d="M4178 1673 c12 -2 32 -2 45 0 12 2 2 4 -23 4 -25 0 -35 -2 -22 -4z"/>
<path d="M1959 735 c-3 -2 -1 -30 3 -62 5 -32 8 -66 9 -75 0 -19 29 -26 29 -8
0 6 7 10 15 10 8 0 15 1 15 3 -1 12 -68 136 -71 132z"/>
<path d="M3825 510 c4 -6 11 -8 16 -5 14 9 11 15 -7 15 -8 0 -12 -5 -9 -10z"/>
<path d="M3770 500 c-13 -8 -13 -10 2 -10 9 0 20 5 23 10 8 13 -5 13 -25 0z"/>
<path d="M2544 346 c12 -10 37 -15 60 -15 l41 2 -45 6 c-25 4 -52 10 -60 15
-8 4 -6 0 4 -8z"/>
<path d="M2658 323 c7 -3 16 -2 19 1 4 3 -2 6 -13 5 -11 0 -14 -3 -6 -6z"/>
<path d="M3081 5532 c-11 -21 -9 -29 24 -79 24 -36 48 -60 72 -69 43 -18 53
-13 19 10 -37 23 -76 69 -76 86 0 9 -4 20 -9 26 -5 5 -11 18 -13 29 -4 19 -5
19 -17 -3z"/>
<path d="M3660 5525 c0 -8 5 -15 10 -15 6 0 10 7 10 15 0 8 -4 15 -10 15 -5 0
-10 -7 -10 -15z"/>
<path d="M2747 5506 c-6 -15 1 -26 15 -26 11 0 10 27 -1 34 -5 3 -11 0 -14 -8z"/>
<path d="M3515 5470 c3 -5 10 -10 16 -10 5 0 9 5 9 10 0 6 -7 10 -16 10 -8 0
-12 -4 -9 -10z"/>
<path d="M2801 5424 c0 -11 3 -14 6 -6 3 7 2 16 -1 19 -3 4 -6 -2 -5 -13z"/>
<path d="M2831 5374 c-24 -13 -36 -24 -27 -24 21 0 76 31 76 42 0 10 3 11 -49
-18z"/>
<path d="M3622 5346 c2 -16 9 -31 17 -34 10 -3 11 2 6 19 -12 39 -27 48 -23
15z"/>
<path d="M2420 5276 c0 -15 59 -47 84 -45 6 0 2 4 -9 9 -16 7 -12 9 18 9 23 1
36 5 32 11 -3 6 -26 9 -50 8 -24 0 -51 5 -60 12 -12 10 -15 10 -15 -4z"/>
<path d="M2606 5240 c-37 -42 -45 -60 -23 -60 10 1 63 66 75 93 10 21 -20 2
-52 -33z"/>
<path d="M4658 1673 c7 -3 16 -2 19 1 4 3 -2 6 -13 5 -11 0 -14 -3 -6 -6z"/>
<path d="M3936 218 c-3 -13 -7 -50 -10 -83 -3 -33 -8 -77 -12 -98 -6 -33 -4
-37 15 -37 20 0 21 4 21 120 0 115 -4 146 -14 98z"/>
<path d="M3271 80 c-1 -34 -4 -66 -7 -71 -3 -5 5 -9 17 -9 20 0 21 4 17 60 -6
85 -25 99 -27 20z"/>
<path d="M2843 106 c3 -7 9 -34 12 -60 5 -29 12 -46 21 -46 11 0 13 10 8 43
-4 23 -11 50 -16 60 -10 20 -33 23 -25 3z"/>
</g>
</svg>
